<mxfile host="app.diagrams.net" modified="2020-11-13T10:02:17.495Z" agent="5.0 (Windows NT 10.0; Win64; x64) AppleWebKit/537.36 (KHTML, like Gecko) Chrome/86.0.4240.183 Safari/537.36" etag="JY13-5xaEvoLyhwGMasI" version="13.9.7" type="github">
  <diagram id="V-N9HssQ_uZqPSxJlfmT" name="Page-1">
    <mxGraphModel dx="1240" dy="1789" grid="1" gridSize="10" guides="1" tooltips="1" connect="1" arrows="1" fold="1" page="1" pageScale="1" pageWidth="850" pageHeight="1100" math="0" shadow="0">
      <root>
        <mxCell id="0" />
        <mxCell id="1" parent="0" />
        <mxCell id="8PVgLa2XDVvWAoMe0A1F-1" value="POLICY" style="shape=table;startSize=30;container=1;collapsible=1;childLayout=tableLayout;fixedRows=1;rowLines=0;fontStyle=1;align=center;resizeLast=1;fillColor=#21C0A5;strokeColor=#006658;fontColor=#5C5C5C;rounded=1;" vertex="1" parent="1">
          <mxGeometry x="725" y="160" width="205" height="160" as="geometry" />
        </mxCell>
        <mxCell id="8PVgLa2XDVvWAoMe0A1F-2" value="" style="shape=partialRectangle;collapsible=0;dropTarget=0;pointerEvents=0;fillColor=none;top=0;left=0;bottom=1;right=0;points=[[0,0.5],[1,0.5]];portConstraint=eastwest;strokeColor=#006658;fontColor=#5C5C5C;rounded=1;" vertex="1" parent="8PVgLa2XDVvWAoMe0A1F-1">
          <mxGeometry y="30" width="205" height="30" as="geometry" />
        </mxCell>
        <mxCell id="8PVgLa2XDVvWAoMe0A1F-3" value="PK" style="shape=partialRectangle;connectable=0;fillColor=none;top=0;left=0;bottom=0;right=0;fontStyle=1;overflow=hidden;strokeColor=#006658;fontColor=#5C5C5C;rounded=1;" vertex="1" parent="8PVgLa2XDVvWAoMe0A1F-2">
          <mxGeometry width="30" height="30" as="geometry" />
        </mxCell>
        <mxCell id="8PVgLa2XDVvWAoMe0A1F-4" value="Id" style="shape=partialRectangle;connectable=0;fillColor=none;top=0;left=0;bottom=0;right=0;align=left;spacingLeft=6;fontStyle=5;overflow=hidden;strokeColor=#006658;fontColor=#5C5C5C;rounded=1;" vertex="1" parent="8PVgLa2XDVvWAoMe0A1F-2">
          <mxGeometry x="30" width="175" height="30" as="geometry" />
        </mxCell>
        <mxCell id="8PVgLa2XDVvWAoMe0A1F-5" value="" style="shape=partialRectangle;collapsible=0;dropTarget=0;pointerEvents=0;fillColor=none;top=0;left=0;bottom=0;right=0;points=[[0,0.5],[1,0.5]];portConstraint=eastwest;strokeColor=#006658;fontColor=#5C5C5C;rounded=1;" vertex="1" parent="8PVgLa2XDVvWAoMe0A1F-1">
          <mxGeometry y="60" width="205" height="30" as="geometry" />
        </mxCell>
        <mxCell id="8PVgLa2XDVvWAoMe0A1F-6" value="" style="shape=partialRectangle;connectable=0;fillColor=none;top=0;left=0;bottom=0;right=0;editable=1;overflow=hidden;strokeColor=#006658;fontColor=#5C5C5C;rounded=1;" vertex="1" parent="8PVgLa2XDVvWAoMe0A1F-5">
          <mxGeometry width="30" height="30" as="geometry" />
        </mxCell>
        <mxCell id="8PVgLa2XDVvWAoMe0A1F-7" value="Policy_No" style="shape=partialRectangle;connectable=0;fillColor=none;top=0;left=0;bottom=0;right=0;align=left;spacingLeft=6;overflow=hidden;strokeColor=#006658;fontColor=#5C5C5C;rounded=1;" vertex="1" parent="8PVgLa2XDVvWAoMe0A1F-5">
          <mxGeometry x="30" width="175" height="30" as="geometry" />
        </mxCell>
        <mxCell id="8PVgLa2XDVvWAoMe0A1F-8" value="" style="shape=partialRectangle;collapsible=0;dropTarget=0;pointerEvents=0;fillColor=none;top=0;left=0;bottom=0;right=0;points=[[0,0.5],[1,0.5]];portConstraint=eastwest;strokeColor=#006658;fontColor=#5C5C5C;rounded=1;" vertex="1" parent="8PVgLa2XDVvWAoMe0A1F-1">
          <mxGeometry y="90" width="205" height="30" as="geometry" />
        </mxCell>
        <mxCell id="8PVgLa2XDVvWAoMe0A1F-9" value="" style="shape=partialRectangle;connectable=0;fillColor=none;top=0;left=0;bottom=0;right=0;editable=1;overflow=hidden;strokeColor=#006658;fontColor=#5C5C5C;rounded=1;" vertex="1" parent="8PVgLa2XDVvWAoMe0A1F-8">
          <mxGeometry width="30" height="30" as="geometry" />
        </mxCell>
        <mxCell id="8PVgLa2XDVvWAoMe0A1F-10" value="Product_Type" style="shape=partialRectangle;connectable=0;fillColor=none;top=0;left=0;bottom=0;right=0;align=left;spacingLeft=6;overflow=hidden;strokeColor=#006658;fontColor=#5C5C5C;rounded=1;" vertex="1" parent="8PVgLa2XDVvWAoMe0A1F-8">
          <mxGeometry x="30" width="175" height="30" as="geometry" />
        </mxCell>
        <mxCell id="8PVgLa2XDVvWAoMe0A1F-11" value="" style="shape=partialRectangle;collapsible=0;dropTarget=0;pointerEvents=0;fillColor=none;top=0;left=0;bottom=0;right=0;points=[[0,0.5],[1,0.5]];portConstraint=eastwest;strokeColor=#006658;fontColor=#5C5C5C;rounded=1;" vertex="1" parent="8PVgLa2XDVvWAoMe0A1F-1">
          <mxGeometry y="120" width="205" height="30" as="geometry" />
        </mxCell>
        <mxCell id="8PVgLa2XDVvWAoMe0A1F-12" value="" style="shape=partialRectangle;connectable=0;fillColor=none;top=0;left=0;bottom=0;right=0;editable=1;overflow=hidden;strokeColor=#006658;fontColor=#5C5C5C;rounded=1;" vertex="1" parent="8PVgLa2XDVvWAoMe0A1F-11">
          <mxGeometry width="30" height="30" as="geometry" />
        </mxCell>
        <mxCell id="8PVgLa2XDVvWAoMe0A1F-13" value="Renawal_No" style="shape=partialRectangle;connectable=0;fillColor=none;top=0;left=0;bottom=0;right=0;align=left;spacingLeft=6;overflow=hidden;strokeColor=#006658;fontColor=#5C5C5C;rounded=1;" vertex="1" parent="8PVgLa2XDVvWAoMe0A1F-11">
          <mxGeometry x="30" width="175" height="30" as="geometry" />
        </mxCell>
        <mxCell id="8PVgLa2XDVvWAoMe0A1F-14" value="PERSON_POLICY" style="shape=table;startSize=30;container=1;collapsible=1;childLayout=tableLayout;fixedRows=1;rowLines=0;fontStyle=1;align=center;resizeLast=1;fillColor=#21C0A5;strokeColor=#006658;fontColor=#5C5C5C;rounded=1;" vertex="1" parent="1">
          <mxGeometry x="720" y="-80" width="210" height="130" as="geometry" />
        </mxCell>
        <mxCell id="8PVgLa2XDVvWAoMe0A1F-15" value="" style="shape=partialRectangle;collapsible=0;dropTarget=0;pointerEvents=0;fillColor=none;top=0;left=0;bottom=0;right=0;points=[[0,0.5],[1,0.5]];portConstraint=eastwest;strokeColor=#006658;fontColor=#5C5C5C;rounded=1;" vertex="1" parent="8PVgLa2XDVvWAoMe0A1F-14">
          <mxGeometry y="30" width="210" height="30" as="geometry" />
        </mxCell>
        <mxCell id="8PVgLa2XDVvWAoMe0A1F-16" value="FK1" style="shape=partialRectangle;connectable=0;fillColor=none;top=0;left=0;bottom=0;right=0;fontStyle=1;overflow=hidden;strokeColor=#006658;fontColor=#5C5C5C;rounded=1;" vertex="1" parent="8PVgLa2XDVvWAoMe0A1F-15">
          <mxGeometry width="60" height="30" as="geometry" />
        </mxCell>
        <mxCell id="8PVgLa2XDVvWAoMe0A1F-17" value="Policy_Id" style="shape=partialRectangle;connectable=0;fillColor=none;top=0;left=0;bottom=0;right=0;align=left;spacingLeft=6;fontStyle=5;overflow=hidden;strokeColor=#006658;fontColor=#5C5C5C;rounded=1;" vertex="1" parent="8PVgLa2XDVvWAoMe0A1F-15">
          <mxGeometry x="60" width="150" height="30" as="geometry" />
        </mxCell>
        <mxCell id="8PVgLa2XDVvWAoMe0A1F-18" value="" style="shape=partialRectangle;collapsible=0;dropTarget=0;pointerEvents=0;fillColor=none;top=0;left=0;bottom=1;right=0;points=[[0,0.5],[1,0.5]];portConstraint=eastwest;strokeColor=#006658;fontColor=#5C5C5C;rounded=1;" vertex="1" parent="8PVgLa2XDVvWAoMe0A1F-14">
          <mxGeometry y="60" width="210" height="30" as="geometry" />
        </mxCell>
        <mxCell id="8PVgLa2XDVvWAoMe0A1F-19" value="FK2" style="shape=partialRectangle;connectable=0;fillColor=none;top=0;left=0;bottom=0;right=0;fontStyle=1;overflow=hidden;strokeColor=#006658;fontColor=#5C5C5C;rounded=1;" vertex="1" parent="8PVgLa2XDVvWAoMe0A1F-18">
          <mxGeometry width="60" height="30" as="geometry" />
        </mxCell>
        <mxCell id="8PVgLa2XDVvWAoMe0A1F-20" value="Person_Id" style="shape=partialRectangle;connectable=0;fillColor=none;top=0;left=0;bottom=0;right=0;align=left;spacingLeft=6;fontStyle=5;overflow=hidden;strokeColor=#006658;fontColor=#5C5C5C;rounded=1;" vertex="1" parent="8PVgLa2XDVvWAoMe0A1F-18">
          <mxGeometry x="60" width="150" height="30" as="geometry" />
        </mxCell>
        <mxCell id="8PVgLa2XDVvWAoMe0A1F-21" value="" style="shape=partialRectangle;collapsible=0;dropTarget=0;pointerEvents=0;fillColor=none;top=0;left=0;bottom=0;right=0;points=[[0,0.5],[1,0.5]];portConstraint=eastwest;strokeColor=#006658;fontColor=#5C5C5C;rounded=1;" vertex="1" parent="8PVgLa2XDVvWAoMe0A1F-14">
          <mxGeometry y="90" width="210" height="30" as="geometry" />
        </mxCell>
        <mxCell id="8PVgLa2XDVvWAoMe0A1F-22" value="" style="shape=partialRectangle;connectable=0;fillColor=none;top=0;left=0;bottom=0;right=0;editable=1;overflow=hidden;strokeColor=#006658;fontColor=#5C5C5C;rounded=1;" vertex="1" parent="8PVgLa2XDVvWAoMe0A1F-21">
          <mxGeometry width="60" height="30" as="geometry" />
        </mxCell>
        <mxCell id="8PVgLa2XDVvWAoMe0A1F-23" value="Relation_Type" style="shape=partialRectangle;connectable=0;fillColor=none;top=0;left=0;bottom=0;right=0;align=left;spacingLeft=6;overflow=hidden;strokeColor=#006658;fontColor=#5C5C5C;rounded=1;" vertex="1" parent="8PVgLa2XDVvWAoMe0A1F-21">
          <mxGeometry x="60" width="150" height="30" as="geometry" />
        </mxCell>
        <mxCell id="8PVgLa2XDVvWAoMe0A1F-27" value="PERSON" style="shape=table;startSize=30;container=1;collapsible=1;childLayout=tableLayout;fixedRows=1;rowLines=0;fontStyle=1;align=center;resizeLast=1;fillColor=#21C0A5;strokeColor=#006658;fontColor=#5C5C5C;rounded=1;" vertex="1" parent="1">
          <mxGeometry x="1060" y="160" width="180" height="160" as="geometry" />
        </mxCell>
        <mxCell id="8PVgLa2XDVvWAoMe0A1F-28" value="" style="shape=partialRectangle;collapsible=0;dropTarget=0;pointerEvents=0;fillColor=none;top=0;left=0;bottom=1;right=0;points=[[0,0.5],[1,0.5]];portConstraint=eastwest;strokeColor=#006658;fontColor=#5C5C5C;rounded=1;" vertex="1" parent="8PVgLa2XDVvWAoMe0A1F-27">
          <mxGeometry y="30" width="180" height="30" as="geometry" />
        </mxCell>
        <mxCell id="8PVgLa2XDVvWAoMe0A1F-29" value="PK" style="shape=partialRectangle;connectable=0;fillColor=none;top=0;left=0;bottom=0;right=0;fontStyle=1;overflow=hidden;strokeColor=#006658;fontColor=#5C5C5C;rounded=1;" vertex="1" parent="8PVgLa2XDVvWAoMe0A1F-28">
          <mxGeometry width="30" height="30" as="geometry" />
        </mxCell>
        <mxCell id="8PVgLa2XDVvWAoMe0A1F-30" value="Id" style="shape=partialRectangle;connectable=0;fillColor=none;top=0;left=0;bottom=0;right=0;align=left;spacingLeft=6;fontStyle=5;overflow=hidden;strokeColor=#006658;fontColor=#5C5C5C;rounded=1;" vertex="1" parent="8PVgLa2XDVvWAoMe0A1F-28">
          <mxGeometry x="30" width="150" height="30" as="geometry" />
        </mxCell>
        <mxCell id="8PVgLa2XDVvWAoMe0A1F-31" value="" style="shape=partialRectangle;collapsible=0;dropTarget=0;pointerEvents=0;fillColor=none;top=0;left=0;bottom=0;right=0;points=[[0,0.5],[1,0.5]];portConstraint=eastwest;strokeColor=#006658;fontColor=#5C5C5C;rounded=1;" vertex="1" parent="8PVgLa2XDVvWAoMe0A1F-27">
          <mxGeometry y="60" width="180" height="30" as="geometry" />
        </mxCell>
        <mxCell id="8PVgLa2XDVvWAoMe0A1F-32" value="" style="shape=partialRectangle;connectable=0;fillColor=none;top=0;left=0;bottom=0;right=0;editable=1;overflow=hidden;strokeColor=#006658;fontColor=#5C5C5C;rounded=1;" vertex="1" parent="8PVgLa2XDVvWAoMe0A1F-31">
          <mxGeometry width="30" height="30" as="geometry" />
        </mxCell>
        <mxCell id="8PVgLa2XDVvWAoMe0A1F-33" value="Tckn" style="shape=partialRectangle;connectable=0;fillColor=none;top=0;left=0;bottom=0;right=0;align=left;spacingLeft=6;overflow=hidden;strokeColor=#006658;fontColor=#5C5C5C;rounded=1;" vertex="1" parent="8PVgLa2XDVvWAoMe0A1F-31">
          <mxGeometry x="30" width="150" height="30" as="geometry" />
        </mxCell>
        <mxCell id="8PVgLa2XDVvWAoMe0A1F-34" value="" style="shape=partialRectangle;collapsible=0;dropTarget=0;pointerEvents=0;fillColor=none;top=0;left=0;bottom=0;right=0;points=[[0,0.5],[1,0.5]];portConstraint=eastwest;strokeColor=#006658;fontColor=#5C5C5C;rounded=1;" vertex="1" parent="8PVgLa2XDVvWAoMe0A1F-27">
          <mxGeometry y="90" width="180" height="30" as="geometry" />
        </mxCell>
        <mxCell id="8PVgLa2XDVvWAoMe0A1F-35" value="" style="shape=partialRectangle;connectable=0;fillColor=none;top=0;left=0;bottom=0;right=0;editable=1;overflow=hidden;strokeColor=#006658;fontColor=#5C5C5C;rounded=1;" vertex="1" parent="8PVgLa2XDVvWAoMe0A1F-34">
          <mxGeometry width="30" height="30" as="geometry" />
        </mxCell>
        <mxCell id="8PVgLa2XDVvWAoMe0A1F-36" value="Name" style="shape=partialRectangle;connectable=0;fillColor=none;top=0;left=0;bottom=0;right=0;align=left;spacingLeft=6;overflow=hidden;strokeColor=#006658;fontColor=#5C5C5C;rounded=1;" vertex="1" parent="8PVgLa2XDVvWAoMe0A1F-34">
          <mxGeometry x="30" width="150" height="30" as="geometry" />
        </mxCell>
        <mxCell id="8PVgLa2XDVvWAoMe0A1F-37" value="" style="shape=partialRectangle;collapsible=0;dropTarget=0;pointerEvents=0;fillColor=none;top=0;left=0;bottom=0;right=0;points=[[0,0.5],[1,0.5]];portConstraint=eastwest;strokeColor=#006658;fontColor=#5C5C5C;rounded=1;" vertex="1" parent="8PVgLa2XDVvWAoMe0A1F-27">
          <mxGeometry y="120" width="180" height="30" as="geometry" />
        </mxCell>
        <mxCell id="8PVgLa2XDVvWAoMe0A1F-38" value="" style="shape=partialRectangle;connectable=0;fillColor=none;top=0;left=0;bottom=0;right=0;editable=1;overflow=hidden;strokeColor=#006658;fontColor=#5C5C5C;rounded=1;" vertex="1" parent="8PVgLa2XDVvWAoMe0A1F-37">
          <mxGeometry width="30" height="30" as="geometry" />
        </mxCell>
        <mxCell id="8PVgLa2XDVvWAoMe0A1F-39" value="Surname" style="shape=partialRectangle;connectable=0;fillColor=none;top=0;left=0;bottom=0;right=0;align=left;spacingLeft=6;overflow=hidden;strokeColor=#006658;fontColor=#5C5C5C;rounded=1;" vertex="1" parent="8PVgLa2XDVvWAoMe0A1F-37">
          <mxGeometry x="30" width="150" height="30" as="geometry" />
        </mxCell>
        <mxCell id="8PVgLa2XDVvWAoMe0A1F-55" value="PERSON_CONTACT" style="shape=table;startSize=30;container=1;collapsible=1;childLayout=tableLayout;fixedRows=1;rowLines=0;fontStyle=1;align=center;resizeLast=1;fillColor=#21C0A5;strokeColor=#006658;fontColor=#5C5C5C;rounded=1;" vertex="1" parent="1">
          <mxGeometry x="1060" y="-80" width="180" height="180" as="geometry" />
        </mxCell>
        <mxCell id="8PVgLa2XDVvWAoMe0A1F-56" value="" style="shape=partialRectangle;collapsible=0;dropTarget=0;pointerEvents=0;fillColor=none;top=0;left=0;bottom=0;right=0;points=[[0,0.5],[1,0.5]];portConstraint=eastwest;strokeColor=#006658;fontColor=#5C5C5C;rounded=1;" vertex="1" parent="8PVgLa2XDVvWAoMe0A1F-55">
          <mxGeometry y="30" width="180" height="30" as="geometry" />
        </mxCell>
        <mxCell id="8PVgLa2XDVvWAoMe0A1F-57" value="PK" style="shape=partialRectangle;connectable=0;fillColor=none;top=0;left=0;bottom=0;right=0;fontStyle=1;overflow=hidden;strokeColor=#006658;fontColor=#5C5C5C;rounded=1;" vertex="1" parent="8PVgLa2XDVvWAoMe0A1F-56">
          <mxGeometry width="60" height="30" as="geometry" />
        </mxCell>
        <mxCell id="8PVgLa2XDVvWAoMe0A1F-58" value="Id" style="shape=partialRectangle;connectable=0;fillColor=none;top=0;left=0;bottom=0;right=0;align=left;spacingLeft=6;fontStyle=5;overflow=hidden;strokeColor=#006658;fontColor=#5C5C5C;rounded=1;" vertex="1" parent="8PVgLa2XDVvWAoMe0A1F-56">
          <mxGeometry x="60" width="120" height="30" as="geometry" />
        </mxCell>
        <mxCell id="8PVgLa2XDVvWAoMe0A1F-59" value="" style="shape=partialRectangle;collapsible=0;dropTarget=0;pointerEvents=0;fillColor=none;top=0;left=0;bottom=1;right=0;points=[[0,0.5],[1,0.5]];portConstraint=eastwest;strokeColor=#006658;fontColor=#5C5C5C;rounded=1;" vertex="1" parent="8PVgLa2XDVvWAoMe0A1F-55">
          <mxGeometry y="60" width="180" height="30" as="geometry" />
        </mxCell>
        <mxCell id="8PVgLa2XDVvWAoMe0A1F-60" value="FK" style="shape=partialRectangle;connectable=0;fillColor=none;top=0;left=0;bottom=0;right=0;fontStyle=1;overflow=hidden;strokeColor=#006658;fontColor=#5C5C5C;rounded=1;" vertex="1" parent="8PVgLa2XDVvWAoMe0A1F-59">
          <mxGeometry width="60" height="30" as="geometry" />
        </mxCell>
        <mxCell id="8PVgLa2XDVvWAoMe0A1F-61" value="Person_Id" style="shape=partialRectangle;connectable=0;fillColor=none;top=0;left=0;bottom=0;right=0;align=left;spacingLeft=6;fontStyle=5;overflow=hidden;strokeColor=#006658;fontColor=#5C5C5C;rounded=1;" vertex="1" parent="8PVgLa2XDVvWAoMe0A1F-59">
          <mxGeometry x="60" width="120" height="30" as="geometry" />
        </mxCell>
        <mxCell id="8PVgLa2XDVvWAoMe0A1F-62" value="" style="shape=partialRectangle;collapsible=0;dropTarget=0;pointerEvents=0;fillColor=none;top=0;left=0;bottom=0;right=0;points=[[0,0.5],[1,0.5]];portConstraint=eastwest;strokeColor=#006658;fontColor=#5C5C5C;rounded=1;" vertex="1" parent="8PVgLa2XDVvWAoMe0A1F-55">
          <mxGeometry y="90" width="180" height="30" as="geometry" />
        </mxCell>
        <mxCell id="8PVgLa2XDVvWAoMe0A1F-63" value="" style="shape=partialRectangle;connectable=0;fillColor=none;top=0;left=0;bottom=0;right=0;editable=1;overflow=hidden;strokeColor=#006658;fontColor=#5C5C5C;rounded=1;" vertex="1" parent="8PVgLa2XDVvWAoMe0A1F-62">
          <mxGeometry width="60" height="30" as="geometry" />
        </mxCell>
        <mxCell id="8PVgLa2XDVvWAoMe0A1F-64" value="Contact_Type" style="shape=partialRectangle;connectable=0;fillColor=none;top=0;left=0;bottom=0;right=0;align=left;spacingLeft=6;overflow=hidden;strokeColor=#006658;fontColor=#5C5C5C;rounded=1;" vertex="1" parent="8PVgLa2XDVvWAoMe0A1F-62">
          <mxGeometry x="60" width="120" height="30" as="geometry" />
        </mxCell>
        <mxCell id="8PVgLa2XDVvWAoMe0A1F-154" value="" style="shape=partialRectangle;collapsible=0;dropTarget=0;pointerEvents=0;fillColor=none;top=0;left=0;bottom=0;right=0;points=[[0,0.5],[1,0.5]];portConstraint=eastwest;strokeColor=#006658;fontColor=#5C5C5C;rounded=1;" vertex="1" parent="8PVgLa2XDVvWAoMe0A1F-55">
          <mxGeometry y="120" width="180" height="30" as="geometry" />
        </mxCell>
        <mxCell id="8PVgLa2XDVvWAoMe0A1F-155" value="" style="shape=partialRectangle;connectable=0;fillColor=none;top=0;left=0;bottom=0;right=0;editable=1;overflow=hidden;strokeColor=#006658;fontColor=#5C5C5C;rounded=1;" vertex="1" parent="8PVgLa2XDVvWAoMe0A1F-154">
          <mxGeometry width="60" height="30" as="geometry" />
        </mxCell>
        <mxCell id="8PVgLa2XDVvWAoMe0A1F-156" value="Value" style="shape=partialRectangle;connectable=0;fillColor=none;top=0;left=0;bottom=0;right=0;align=left;spacingLeft=6;overflow=hidden;strokeColor=#006658;fontColor=#5C5C5C;rounded=1;" vertex="1" parent="8PVgLa2XDVvWAoMe0A1F-154">
          <mxGeometry x="60" width="120" height="30" as="geometry" />
        </mxCell>
        <mxCell id="8PVgLa2XDVvWAoMe0A1F-69" value="" style="shape=partialRectangle;collapsible=0;dropTarget=0;pointerEvents=0;fillColor=none;top=0;left=0;bottom=0;right=0;points=[[0,0.5],[1,0.5]];portConstraint=eastwest;strokeColor=#006658;fontColor=#5C5C5C;rounded=1;" vertex="1" parent="8PVgLa2XDVvWAoMe0A1F-55">
          <mxGeometry y="150" width="180" height="30" as="geometry" />
        </mxCell>
        <mxCell id="8PVgLa2XDVvWAoMe0A1F-70" value="" style="shape=partialRectangle;connectable=0;fillColor=none;top=0;left=0;bottom=0;right=0;editable=1;overflow=hidden;strokeColor=#006658;fontColor=#5C5C5C;rounded=1;" vertex="1" parent="8PVgLa2XDVvWAoMe0A1F-69">
          <mxGeometry width="60" height="30" as="geometry" />
        </mxCell>
        <mxCell id="8PVgLa2XDVvWAoMe0A1F-71" value="Value" style="shape=partialRectangle;connectable=0;fillColor=none;top=0;left=0;bottom=0;right=0;align=left;spacingLeft=6;overflow=hidden;strokeColor=#006658;fontColor=#5C5C5C;rounded=1;" vertex="1" parent="8PVgLa2XDVvWAoMe0A1F-69">
          <mxGeometry x="60" width="120" height="30" as="geometry" />
        </mxCell>
        <mxCell id="8PVgLa2XDVvWAoMe0A1F-84" value="" style="edgeStyle=entityRelationEdgeStyle;fontSize=12;html=1;endArrow=ERoneToMany;exitX=0;exitY=0.5;exitDx=0;exitDy=0;strokeColor=#3700CC;fontColor=#5C5C5C;fillColor=#6a00ff;curved=1;" edge="1" parent="1" source="8PVgLa2XDVvWAoMe0A1F-28" target="8PVgLa2XDVvWAoMe0A1F-18">
          <mxGeometry width="100" height="100" relative="1" as="geometry">
            <mxPoint x="370" y="300" as="sourcePoint" />
            <mxPoint x="470" y="200" as="targetPoint" />
          </mxGeometry>
        </mxCell>
        <mxCell id="8PVgLa2XDVvWAoMe0A1F-85" value="" style="edgeStyle=entityRelationEdgeStyle;fontSize=12;html=1;endArrow=ERoneToMany;exitX=1;exitY=0.5;exitDx=0;exitDy=0;strokeColor=#B20000;fontColor=#5C5C5C;fillColor=#e51400;curved=1;" edge="1" parent="1" source="8PVgLa2XDVvWAoMe0A1F-2" target="8PVgLa2XDVvWAoMe0A1F-15">
          <mxGeometry width="100" height="100" relative="1" as="geometry">
            <mxPoint x="370" y="300" as="sourcePoint" />
            <mxPoint x="417" y="-10" as="targetPoint" />
          </mxGeometry>
        </mxCell>
        <mxCell id="8PVgLa2XDVvWAoMe0A1F-89" value="" style="edgeStyle=entityRelationEdgeStyle;fontSize=12;html=1;endArrow=ERoneToMany;entryX=1;entryY=0.5;entryDx=0;entryDy=0;strokeColor=#BD7000;fontColor=#5C5C5C;fillColor=#f0a30a;curved=1;" edge="1" parent="1" source="8PVgLa2XDVvWAoMe0A1F-28" target="8PVgLa2XDVvWAoMe0A1F-59">
          <mxGeometry width="100" height="100" relative="1" as="geometry">
            <mxPoint x="310" y="185" as="sourcePoint" />
            <mxPoint x="470" y="200" as="targetPoint" />
          </mxGeometry>
        </mxCell>
        <mxCell id="8PVgLa2XDVvWAoMe0A1F-92" value="NOTIFICATION" style="shape=table;startSize=30;container=1;collapsible=1;childLayout=tableLayout;fixedRows=1;rowLines=0;fontStyle=1;align=center;resizeLast=1;fillColor=#21C0A5;strokeColor=#006658;fontColor=#5C5C5C;rounded=1;" vertex="1" parent="1">
          <mxGeometry x="720" y="-340" width="210" height="180" as="geometry" />
        </mxCell>
        <mxCell id="8PVgLa2XDVvWAoMe0A1F-125" value="" style="shape=partialRectangle;collapsible=0;dropTarget=0;pointerEvents=0;fillColor=none;top=0;left=0;bottom=0;right=0;points=[[0,0.5],[1,0.5]];portConstraint=eastwest;rounded=1;" vertex="1" parent="8PVgLa2XDVvWAoMe0A1F-92">
          <mxGeometry y="30" width="210" height="30" as="geometry" />
        </mxCell>
        <mxCell id="8PVgLa2XDVvWAoMe0A1F-126" value="PK" style="shape=partialRectangle;connectable=0;fillColor=none;top=0;left=0;bottom=0;right=0;fontStyle=1;overflow=hidden;rounded=1;" vertex="1" parent="8PVgLa2XDVvWAoMe0A1F-125">
          <mxGeometry width="60" height="30" as="geometry" />
        </mxCell>
        <mxCell id="8PVgLa2XDVvWAoMe0A1F-127" value="Id" style="shape=partialRectangle;connectable=0;fillColor=none;top=0;left=0;bottom=0;right=0;align=left;spacingLeft=6;fontStyle=5;overflow=hidden;rounded=1;" vertex="1" parent="8PVgLa2XDVvWAoMe0A1F-125">
          <mxGeometry x="60" width="150" height="30" as="geometry" />
        </mxCell>
        <mxCell id="8PVgLa2XDVvWAoMe0A1F-93" value="" style="shape=partialRectangle;collapsible=0;dropTarget=0;pointerEvents=0;fillColor=none;top=0;left=0;bottom=0;right=0;points=[[0,0.5],[1,0.5]];portConstraint=eastwest;strokeColor=#006658;fontColor=#5C5C5C;rounded=1;" vertex="1" parent="8PVgLa2XDVvWAoMe0A1F-92">
          <mxGeometry y="60" width="210" height="30" as="geometry" />
        </mxCell>
        <mxCell id="8PVgLa2XDVvWAoMe0A1F-94" value="FK1" style="shape=partialRectangle;connectable=0;fillColor=none;top=0;left=0;bottom=0;right=0;fontStyle=1;overflow=hidden;strokeColor=#006658;fontColor=#5C5C5C;rounded=1;" vertex="1" parent="8PVgLa2XDVvWAoMe0A1F-93">
          <mxGeometry width="60" height="30" as="geometry" />
        </mxCell>
        <mxCell id="8PVgLa2XDVvWAoMe0A1F-95" value="Policy_Id" style="shape=partialRectangle;connectable=0;fillColor=none;top=0;left=0;bottom=0;right=0;align=left;spacingLeft=6;fontStyle=5;overflow=hidden;strokeColor=#006658;fontColor=#5C5C5C;rounded=1;" vertex="1" parent="8PVgLa2XDVvWAoMe0A1F-93">
          <mxGeometry x="60" width="150" height="30" as="geometry" />
        </mxCell>
        <mxCell id="8PVgLa2XDVvWAoMe0A1F-96" value="" style="shape=partialRectangle;collapsible=0;dropTarget=0;pointerEvents=0;fillColor=none;top=0;left=0;bottom=1;right=0;points=[[0,0.5],[1,0.5]];portConstraint=eastwest;strokeColor=#006658;fontColor=#5C5C5C;rounded=1;" vertex="1" parent="8PVgLa2XDVvWAoMe0A1F-92">
          <mxGeometry y="90" width="210" height="30" as="geometry" />
        </mxCell>
        <mxCell id="8PVgLa2XDVvWAoMe0A1F-97" value="FK2" style="shape=partialRectangle;connectable=0;fillColor=none;top=0;left=0;bottom=0;right=0;fontStyle=1;overflow=hidden;strokeColor=#006658;fontColor=#5C5C5C;rounded=1;" vertex="1" parent="8PVgLa2XDVvWAoMe0A1F-96">
          <mxGeometry width="60" height="30" as="geometry" />
        </mxCell>
        <mxCell id="8PVgLa2XDVvWAoMe0A1F-98" value="Person_Contact_Id" style="shape=partialRectangle;connectable=0;fillColor=none;top=0;left=0;bottom=0;right=0;align=left;spacingLeft=6;fontStyle=5;overflow=hidden;strokeColor=#006658;fontColor=#5C5C5C;rounded=1;" vertex="1" parent="8PVgLa2XDVvWAoMe0A1F-96">
          <mxGeometry x="60" width="150" height="30" as="geometry" />
        </mxCell>
        <mxCell id="8PVgLa2XDVvWAoMe0A1F-99" value="" style="shape=partialRectangle;collapsible=0;dropTarget=0;pointerEvents=0;fillColor=none;top=0;left=0;bottom=0;right=0;points=[[0,0.5],[1,0.5]];portConstraint=eastwest;strokeColor=#006658;fontColor=#5C5C5C;rounded=1;" vertex="1" parent="8PVgLa2XDVvWAoMe0A1F-92">
          <mxGeometry y="120" width="210" height="30" as="geometry" />
        </mxCell>
        <mxCell id="8PVgLa2XDVvWAoMe0A1F-100" value="" style="shape=partialRectangle;connectable=0;fillColor=none;top=0;left=0;bottom=0;right=0;editable=1;overflow=hidden;strokeColor=#006658;fontColor=#5C5C5C;rounded=1;" vertex="1" parent="8PVgLa2XDVvWAoMe0A1F-99">
          <mxGeometry width="60" height="30" as="geometry" />
        </mxCell>
        <mxCell id="8PVgLa2XDVvWAoMe0A1F-101" value="Send_Status" style="shape=partialRectangle;connectable=0;fillColor=none;top=0;left=0;bottom=0;right=0;align=left;spacingLeft=6;overflow=hidden;strokeColor=#006658;fontColor=#5C5C5C;rounded=1;" vertex="1" parent="8PVgLa2XDVvWAoMe0A1F-99">
          <mxGeometry x="60" width="150" height="30" as="geometry" />
        </mxCell>
        <mxCell id="8PVgLa2XDVvWAoMe0A1F-102" value="" style="shape=partialRectangle;collapsible=0;dropTarget=0;pointerEvents=0;fillColor=none;top=0;left=0;bottom=0;right=0;points=[[0,0.5],[1,0.5]];portConstraint=eastwest;strokeColor=#006658;fontColor=#5C5C5C;rounded=1;" vertex="1" parent="8PVgLa2XDVvWAoMe0A1F-92">
          <mxGeometry y="150" width="210" height="30" as="geometry" />
        </mxCell>
        <mxCell id="8PVgLa2XDVvWAoMe0A1F-103" value="" style="shape=partialRectangle;connectable=0;fillColor=none;top=0;left=0;bottom=0;right=0;editable=1;overflow=hidden;strokeColor=#006658;fontColor=#5C5C5C;rounded=1;" vertex="1" parent="8PVgLa2XDVvWAoMe0A1F-102">
          <mxGeometry width="60" height="30" as="geometry" />
        </mxCell>
        <mxCell id="8PVgLa2XDVvWAoMe0A1F-104" value="" style="shape=partialRectangle;connectable=0;fillColor=none;top=0;left=0;bottom=0;right=0;align=left;spacingLeft=6;overflow=hidden;strokeColor=#006658;fontColor=#5C5C5C;rounded=1;" vertex="1" parent="8PVgLa2XDVvWAoMe0A1F-102">
          <mxGeometry x="60" width="150" height="30" as="geometry" />
        </mxCell>
        <mxCell id="8PVgLa2XDVvWAoMe0A1F-129" value="NOTIFICATION_LOG" style="shape=table;startSize=30;container=1;collapsible=1;childLayout=tableLayout;fixedRows=1;rowLines=0;fontStyle=1;align=center;resizeLast=1;strokeColor=#006658;fillColor=#21C0A5;fontColor=#5C5C5C;rounded=1;" vertex="1" parent="1">
          <mxGeometry x="1060" y="-340" width="180" height="190" as="geometry" />
        </mxCell>
        <mxCell id="8PVgLa2XDVvWAoMe0A1F-130" value="" style="shape=partialRectangle;collapsible=0;dropTarget=0;pointerEvents=0;fillColor=none;top=0;left=0;bottom=0;right=0;points=[[0,0.5],[1,0.5]];portConstraint=eastwest;rounded=1;" vertex="1" parent="8PVgLa2XDVvWAoMe0A1F-129">
          <mxGeometry y="30" width="180" height="30" as="geometry" />
        </mxCell>
        <mxCell id="8PVgLa2XDVvWAoMe0A1F-131" value="PK" style="shape=partialRectangle;connectable=0;fillColor=none;top=0;left=0;bottom=0;right=0;fontStyle=1;overflow=hidden;rounded=1;" vertex="1" parent="8PVgLa2XDVvWAoMe0A1F-130">
          <mxGeometry width="60" height="30" as="geometry" />
        </mxCell>
        <mxCell id="8PVgLa2XDVvWAoMe0A1F-132" value="Id" style="shape=partialRectangle;connectable=0;fillColor=none;top=0;left=0;bottom=0;right=0;align=left;spacingLeft=6;fontStyle=5;overflow=hidden;rounded=1;" vertex="1" parent="8PVgLa2XDVvWAoMe0A1F-130">
          <mxGeometry x="60" width="120" height="30" as="geometry" />
        </mxCell>
        <mxCell id="8PVgLa2XDVvWAoMe0A1F-133" value="" style="shape=partialRectangle;collapsible=0;dropTarget=0;pointerEvents=0;fillColor=none;top=0;left=0;bottom=1;right=0;points=[[0,0.5],[1,0.5]];portConstraint=eastwest;rounded=1;" vertex="1" parent="8PVgLa2XDVvWAoMe0A1F-129">
          <mxGeometry y="60" width="180" height="30" as="geometry" />
        </mxCell>
        <mxCell id="8PVgLa2XDVvWAoMe0A1F-134" value="FK" style="shape=partialRectangle;connectable=0;fillColor=none;top=0;left=0;bottom=0;right=0;fontStyle=1;overflow=hidden;rounded=1;" vertex="1" parent="8PVgLa2XDVvWAoMe0A1F-133">
          <mxGeometry width="60" height="30" as="geometry" />
        </mxCell>
        <mxCell id="8PVgLa2XDVvWAoMe0A1F-135" value="Notification_Id" style="shape=partialRectangle;connectable=0;fillColor=none;top=0;left=0;bottom=0;right=0;align=left;spacingLeft=6;fontStyle=5;overflow=hidden;rounded=1;" vertex="1" parent="8PVgLa2XDVvWAoMe0A1F-133">
          <mxGeometry x="60" width="120" height="30" as="geometry" />
        </mxCell>
        <mxCell id="8PVgLa2XDVvWAoMe0A1F-136" value="" style="shape=partialRectangle;collapsible=0;dropTarget=0;pointerEvents=0;fillColor=none;top=0;left=0;bottom=0;right=0;points=[[0,0.5],[1,0.5]];portConstraint=eastwest;rounded=1;" vertex="1" parent="8PVgLa2XDVvWAoMe0A1F-129">
          <mxGeometry y="90" width="180" height="30" as="geometry" />
        </mxCell>
        <mxCell id="8PVgLa2XDVvWAoMe0A1F-137" value="" style="shape=partialRectangle;connectable=0;fillColor=none;top=0;left=0;bottom=0;right=0;editable=1;overflow=hidden;rounded=1;" vertex="1" parent="8PVgLa2XDVvWAoMe0A1F-136">
          <mxGeometry width="60" height="30" as="geometry" />
        </mxCell>
        <mxCell id="8PVgLa2XDVvWAoMe0A1F-138" value="Status" style="shape=partialRectangle;connectable=0;fillColor=none;top=0;left=0;bottom=0;right=0;align=left;spacingLeft=6;overflow=hidden;rounded=1;" vertex="1" parent="8PVgLa2XDVvWAoMe0A1F-136">
          <mxGeometry x="60" width="120" height="30" as="geometry" />
        </mxCell>
        <mxCell id="8PVgLa2XDVvWAoMe0A1F-139" value="" style="shape=partialRectangle;collapsible=0;dropTarget=0;pointerEvents=0;fillColor=none;top=0;left=0;bottom=0;right=0;points=[[0,0.5],[1,0.5]];portConstraint=eastwest;rounded=1;" vertex="1" parent="8PVgLa2XDVvWAoMe0A1F-129">
          <mxGeometry y="120" width="180" height="30" as="geometry" />
        </mxCell>
        <mxCell id="8PVgLa2XDVvWAoMe0A1F-140" value="" style="shape=partialRectangle;connectable=0;fillColor=none;top=0;left=0;bottom=0;right=0;editable=1;overflow=hidden;rounded=1;" vertex="1" parent="8PVgLa2XDVvWAoMe0A1F-139">
          <mxGeometry width="60" height="30" as="geometry" />
        </mxCell>
        <mxCell id="8PVgLa2XDVvWAoMe0A1F-141" value="Error_Message" style="shape=partialRectangle;connectable=0;fillColor=none;top=0;left=0;bottom=0;right=0;align=left;spacingLeft=6;overflow=hidden;rounded=1;" vertex="1" parent="8PVgLa2XDVvWAoMe0A1F-139">
          <mxGeometry x="60" width="120" height="30" as="geometry" />
        </mxCell>
        <mxCell id="8PVgLa2XDVvWAoMe0A1F-151" value="" style="shape=partialRectangle;collapsible=0;dropTarget=0;pointerEvents=0;fillColor=none;top=0;left=0;bottom=0;right=0;points=[[0,0.5],[1,0.5]];portConstraint=eastwest;rounded=1;" vertex="1" parent="8PVgLa2XDVvWAoMe0A1F-129">
          <mxGeometry y="150" width="180" height="30" as="geometry" />
        </mxCell>
        <mxCell id="8PVgLa2XDVvWAoMe0A1F-152" value="" style="shape=partialRectangle;connectable=0;fillColor=none;top=0;left=0;bottom=0;right=0;editable=1;overflow=hidden;rounded=1;" vertex="1" parent="8PVgLa2XDVvWAoMe0A1F-151">
          <mxGeometry width="60" height="30" as="geometry" />
        </mxCell>
        <mxCell id="8PVgLa2XDVvWAoMe0A1F-153" value="Error_Code" style="shape=partialRectangle;connectable=0;fillColor=none;top=0;left=0;bottom=0;right=0;align=left;spacingLeft=6;overflow=hidden;rounded=1;" vertex="1" parent="8PVgLa2XDVvWAoMe0A1F-151">
          <mxGeometry x="60" width="120" height="30" as="geometry" />
        </mxCell>
        <mxCell id="8PVgLa2XDVvWAoMe0A1F-150" value="" style="edgeStyle=entityRelationEdgeStyle;fontSize=12;html=1;endArrow=ERoneToMany;strokeColor=#23445d;fillColor=#bac8d3;entryX=1;entryY=0.5;entryDx=0;entryDy=0;exitX=0;exitY=0.5;exitDx=0;exitDy=0;curved=1;" edge="1" parent="1" source="8PVgLa2XDVvWAoMe0A1F-133" target="8PVgLa2XDVvWAoMe0A1F-125">
          <mxGeometry width="100" height="100" relative="1" as="geometry">
            <mxPoint x="780" y="-80" as="sourcePoint" />
            <mxPoint x="880" y="-180" as="targetPoint" />
          </mxGeometry>
        </mxCell>
        <mxCell id="8PVgLa2XDVvWAoMe0A1F-158" value="" style="edgeStyle=entityRelationEdgeStyle;fontSize=12;html=1;endArrow=ERzeroToMany;endFill=1;startArrow=ERzeroToMany;strokeColor=#006658;fillColor=#21C0A5;curved=1;" edge="1" parent="1" source="8PVgLa2XDVvWAoMe0A1F-56" target="8PVgLa2XDVvWAoMe0A1F-96">
          <mxGeometry width="100" height="100" relative="1" as="geometry">
            <mxPoint x="780" y="30" as="sourcePoint" />
            <mxPoint x="880" y="-70" as="targetPoint" />
          </mxGeometry>
        </mxCell>
        <mxCell id="8PVgLa2XDVvWAoMe0A1F-157" value="" style="edgeStyle=entityRelationEdgeStyle;fontSize=12;html=1;endArrow=ERzeroToMany;endFill=1;startArrow=ERzeroToMany;strokeColor=#B09500;fillColor=#e3c800;startFill=1;textDirection=ltr;curved=1;" edge="1" parent="1" source="8PVgLa2XDVvWAoMe0A1F-1" target="8PVgLa2XDVvWAoMe0A1F-93">
          <mxGeometry width="100" height="100" relative="1" as="geometry">
            <mxPoint x="780" y="-80" as="sourcePoint" />
            <mxPoint x="880" y="-180" as="targetPoint" />
          </mxGeometry>
        </mxCell>
        <mxCell id="8PVgLa2XDVvWAoMe0A1F-159" value="POLICY_FILE" style="shape=table;startSize=30;container=1;collapsible=1;childLayout=tableLayout;fixedRows=1;rowLines=0;fontStyle=1;align=center;resizeLast=1;rounded=1;strokeColor=#006658;fillColor=#21C0A5;fontColor=#5C5C5C;" vertex="1" parent="1">
          <mxGeometry x="480" y="100" width="180" height="130" as="geometry" />
        </mxCell>
        <mxCell id="8PVgLa2XDVvWAoMe0A1F-173" value="" style="shape=partialRectangle;collapsible=0;dropTarget=0;pointerEvents=0;fillColor=none;top=0;left=0;bottom=0;right=0;points=[[0,0.5],[1,0.5]];portConstraint=eastwest;" vertex="1" parent="8PVgLa2XDVvWAoMe0A1F-159">
          <mxGeometry y="30" width="180" height="30" as="geometry" />
        </mxCell>
        <mxCell id="8PVgLa2XDVvWAoMe0A1F-174" value="PK" style="shape=partialRectangle;connectable=0;fillColor=none;top=0;left=0;bottom=0;right=0;fontStyle=0;overflow=hidden;" vertex="1" parent="8PVgLa2XDVvWAoMe0A1F-173">
          <mxGeometry width="30" height="30" as="geometry" />
        </mxCell>
        <mxCell id="8PVgLa2XDVvWAoMe0A1F-175" value="Id" style="shape=partialRectangle;connectable=0;fillColor=none;top=0;left=0;bottom=0;right=0;align=left;spacingLeft=6;fontStyle=0;overflow=hidden;" vertex="1" parent="8PVgLa2XDVvWAoMe0A1F-173">
          <mxGeometry x="30" width="150" height="30" as="geometry" />
        </mxCell>
        <mxCell id="8PVgLa2XDVvWAoMe0A1F-160" value="" style="shape=partialRectangle;collapsible=0;dropTarget=0;pointerEvents=0;fillColor=none;top=0;left=0;bottom=1;right=0;points=[[0,0.5],[1,0.5]];portConstraint=eastwest;" vertex="1" parent="8PVgLa2XDVvWAoMe0A1F-159">
          <mxGeometry y="60" width="180" height="30" as="geometry" />
        </mxCell>
        <mxCell id="8PVgLa2XDVvWAoMe0A1F-161" value="FK" style="shape=partialRectangle;connectable=0;fillColor=none;top=0;left=0;bottom=0;right=0;fontStyle=1;overflow=hidden;" vertex="1" parent="8PVgLa2XDVvWAoMe0A1F-160">
          <mxGeometry width="30" height="30" as="geometry" />
        </mxCell>
        <mxCell id="8PVgLa2XDVvWAoMe0A1F-162" value="Policy_Id" style="shape=partialRectangle;connectable=0;fillColor=none;top=0;left=0;bottom=0;right=0;align=left;spacingLeft=6;fontStyle=5;overflow=hidden;" vertex="1" parent="8PVgLa2XDVvWAoMe0A1F-160">
          <mxGeometry x="30" width="150" height="30" as="geometry" />
        </mxCell>
        <mxCell id="8PVgLa2XDVvWAoMe0A1F-163" value="" style="shape=partialRectangle;collapsible=0;dropTarget=0;pointerEvents=0;fillColor=none;top=0;left=0;bottom=0;right=0;points=[[0,0.5],[1,0.5]];portConstraint=eastwest;" vertex="1" parent="8PVgLa2XDVvWAoMe0A1F-159">
          <mxGeometry y="90" width="180" height="30" as="geometry" />
        </mxCell>
        <mxCell id="8PVgLa2XDVvWAoMe0A1F-164" value="" style="shape=partialRectangle;connectable=0;fillColor=none;top=0;left=0;bottom=0;right=0;editable=1;overflow=hidden;" vertex="1" parent="8PVgLa2XDVvWAoMe0A1F-163">
          <mxGeometry width="30" height="30" as="geometry" />
        </mxCell>
        <mxCell id="8PVgLa2XDVvWAoMe0A1F-165" value="File_Url" style="shape=partialRectangle;connectable=0;fillColor=none;top=0;left=0;bottom=0;right=0;align=left;spacingLeft=6;overflow=hidden;" vertex="1" parent="8PVgLa2XDVvWAoMe0A1F-163">
          <mxGeometry x="30" width="150" height="30" as="geometry" />
        </mxCell>
        <mxCell id="8PVgLa2XDVvWAoMe0A1F-177" value="" style="edgeStyle=entityRelationEdgeStyle;fontSize=12;html=1;endArrow=ERoneToMany;strokeColor=#006658;fillColor=#21C0A5;entryX=1;entryY=0.5;entryDx=0;entryDy=0;exitX=0;exitY=0.5;exitDx=0;exitDy=0;" edge="1" parent="1" source="8PVgLa2XDVvWAoMe0A1F-2" target="8PVgLa2XDVvWAoMe0A1F-160">
          <mxGeometry width="100" height="100" relative="1" as="geometry">
            <mxPoint x="780" y="150" as="sourcePoint" />
            <mxPoint x="880" y="50" as="targetPoint" />
          </mxGeometry>
        </mxCell>
      </root>
    </mxGraphModel>
  </diagram>
</mxfile>
